<svg xmlns="http://www.w3.org/2000/svg" width="326" height="78" viewBox="0 0 326 78" fill="none"><g clip-path="url(#clip0_2634_1663)"><path d="M39 0C47.91 0 55.16 0.41 60.76 0.93C64.54 1.28 66.43 1.46 69.19 3C71.09 4.06 73.94 6.91 74.99 8.8C76.53 11.56 76.71 13.45 77.06 17.23C77.58 22.83 77.99 30.09 77.99 38.99C77.99 47.89 77.58 55.15 77.06 60.75C76.71 64.53 76.53 66.42 74.99 69.18C73.93 71.08 71.08 73.93 69.19 74.98C66.43 76.52 64.54 76.7 60.76 77.05C55.16 77.57 47.9 77.98 39 77.98C30.1 77.98 22.84 77.57 17.24 77.05C13.46 76.7 11.57 76.52 8.81001 74.98C6.91001 73.92 4.06001 71.07 3.01001 69.18C1.47001 66.42 1.29001 64.53 0.94001 60.75C0.42001 55.15 0.0100098 47.89 0.0100098 38.99C0.0100098 30.09 0.42001 22.83 0.94001 17.23C1.29001 13.45 1.47001 11.56 3.01001 8.8C4.07001 6.9 6.92001 4.05 8.81001 3C11.57 1.46 13.46 1.28 17.24 0.93C22.84 0.41 30.1 0 39 0ZM15 12C13.34 12 12 13.34 12 15C12 16.66 13.34 18 15 18H36V27.3C29.15 28.69 24 34.74 24 42C24 49.26 29.15 55.31 36 56.7V66C36 67.66 37.34 69 39 69C40.66 69 42 67.66 42 66V56.7C48.85 55.31 54 49.26 54 42C54 34.74 48.85 28.69 42 27.3V18H63C64.66 18 66 16.66 66 15C66 13.34 64.66 12 63 12H15ZM39 33C43.97 33 48 37.03 48 42C48 46.97 43.97 51 39 51C34.03 51 30 46.97 30 42C30 37.03 34.03 33 39 33Z" fill="#FFB25B"></path><path d="M200.25 28C207.98 28 214.25 34.27 214.25 42C214.25 49.73 207.98 56 200.25 56C192.52 56 186.25 49.73 186.25 42C186.25 34.27 192.52 28 200.25 28ZM111.04 28.5C111.04 28.5 111.09 28.5 111.12 28.5C111.14 28.5 111.16 28.5 111.19 28.5C111.22 28.5 111.24 28.5 111.27 28.51C111.29 28.51 111.32 28.51 111.34 28.52C111.36 28.52 111.39 28.53 111.41 28.54C111.43 28.54 111.46 28.55 111.48 28.56C111.51 28.56 111.53 28.58 111.55 28.59C111.57 28.59 111.59 28.61 111.61 28.61C111.63 28.62 111.66 28.63 111.68 28.64C111.7 28.65 111.73 28.66 111.75 28.68C111.77 28.68 111.78 28.7 111.8 28.71C111.83 28.73 111.85 28.75 111.88 28.76C111.88 28.76 111.9 28.77 111.9 28.78C111.9 28.78 111.91 28.79 111.92 28.8C111.94 28.82 111.97 28.84 111.99 28.86C112.01 28.87 112.02 28.89 112.04 28.9C112.06 28.92 112.08 28.94 112.1 28.96C112.11 28.98 112.13 28.99 112.15 29.01C112.17 29.03 112.18 29.05 112.2 29.07C112.21 29.09 112.23 29.11 112.24 29.12C112.26 29.14 112.27 29.17 112.29 29.19C112.29 29.21 112.31 29.22 112.32 29.24C112.33 29.27 112.35 29.29 112.36 29.32C112.36 29.34 112.38 29.36 112.39 29.38C112.4 29.4 112.41 29.43 112.42 29.45C112.42 29.47 112.43 29.49 112.44 29.51C112.44 29.54 112.46 29.57 112.46 29.59C112.46 29.61 112.47 29.63 112.47 29.65C112.47 29.68 112.48 29.71 112.49 29.74C112.49 29.76 112.49 29.77 112.49 29.79C112.49 29.82 112.49 29.85 112.49 29.88C112.49 29.9 112.49 29.92 112.49 29.94C112.49 29.95 112.49 29.97 112.49 29.98C112.49 29.99 112.49 30.01 112.49 30.02C112.49 30.05 112.49 30.07 112.49 30.1C112.49 30.12 112.49 30.14 112.49 30.16C112.49 30.19 112.49 30.22 112.48 30.24C112.48 30.26 112.48 30.29 112.47 30.31C112.47 30.33 112.46 30.35 112.45 30.38C112.45 30.41 112.43 30.44 112.42 30.46C112.42 30.48 112.41 30.49 112.4 30.51C112.39 30.54 112.38 30.57 112.36 30.6C112.36 30.61 112.35 30.63 112.34 30.64C112.32 30.67 112.3 30.71 112.28 30.74C112.28 30.74 112.28 30.76 112.27 30.76C112.25 30.79 112.23 30.82 112.21 30.85C112.21 30.85 112.2 30.87 112.19 30.88L95.99 52.48H110.99C111.82 52.48 112.49 53.15 112.49 53.98C112.49 54.81 111.82 55.48 110.99 55.48H92.99C92.99 55.48 92.96 55.48 92.95 55.48C92.92 55.48 92.9 55.48 92.87 55.48C92.85 55.48 92.83 55.48 92.81 55.48C92.78 55.48 92.75 55.48 92.73 55.47C92.71 55.47 92.68 55.47 92.66 55.46C92.64 55.46 92.61 55.45 92.59 55.44C92.57 55.44 92.55 55.43 92.53 55.42C92.5 55.42 92.47 55.4 92.44 55.39C92.43 55.39 92.41 55.38 92.4 55.37C92.37 55.36 92.35 55.34 92.32 55.33C92.3 55.32 92.28 55.31 92.26 55.3C92.24 55.29 92.22 55.28 92.21 55.27C92.19 55.25 92.16 55.24 92.14 55.22C92.14 55.22 92.12 55.21 92.11 55.2C92.1 55.2 92.09 55.18 92.08 55.17C92.06 55.16 92.05 55.14 92.03 55.13C92.01 55.11 91.99 55.09 91.96 55.07C91.95 55.06 91.93 55.05 91.92 55.03C91.9 55.01 91.88 54.98 91.85 54.96C91.84 54.95 91.83 54.93 91.82 54.92C91.8 54.9 91.78 54.87 91.77 54.85C91.76 54.83 91.75 54.82 91.74 54.8C91.72 54.78 91.71 54.75 91.7 54.73C91.69 54.71 91.68 54.69 91.67 54.67C91.66 54.65 91.65 54.63 91.64 54.6C91.64 54.58 91.62 54.56 91.62 54.55C91.61 54.52 91.6 54.49 91.59 54.46C91.59 54.44 91.58 54.42 91.57 54.4C91.57 54.38 91.56 54.35 91.55 54.33C91.55 54.31 91.55 54.28 91.54 54.26C91.54 54.23 91.54 54.21 91.53 54.18C91.53 54.16 91.53 54.15 91.53 54.13C91.53 54.09 91.53 54.06 91.53 54.02C91.53 54.02 91.53 54.01 91.53 54C91.53 53.99 91.53 53.99 91.53 53.98C91.53 53.94 91.53 53.9 91.53 53.87C91.53 53.86 91.53 53.84 91.53 53.83C91.53 53.8 91.53 53.77 91.54 53.74C91.54 53.72 91.54 53.69 91.55 53.67C91.55 53.65 91.56 53.62 91.57 53.6C91.57 53.58 91.58 53.56 91.59 53.54C91.59 53.51 91.61 53.48 91.62 53.46C91.62 53.44 91.63 53.43 91.64 53.41C91.65 53.39 91.66 53.36 91.67 53.34C91.68 53.32 91.69 53.29 91.71 53.27C91.71 53.25 91.73 53.24 91.74 53.22C91.76 53.2 91.77 53.17 91.79 53.15C91.79 53.15 91.8 53.13 91.81 53.12L108.01 31.52H93.01C92.18 31.52 91.51 30.85 91.51 30.02C91.51 29.19 92.18 28.52 93.01 28.52H111.01C111.01 28.52 111.04 28.52 111.05 28.52L111.04 28.5ZM142.5 28.5C143.33 28.5 144 29.17 144 30C144 30.83 143.33 31.5 142.5 31.5H129V40.5H139.5C140.33 40.5 141 41.17 141 42C141 42.83 140.33 43.5 139.5 43.5H129V52.5H142.5C143.33 52.5 144 53.17 144 54C144 54.83 143.33 55.5 142.5 55.5H127.5C126.67 55.5 126 54.83 126 54V30C126 29.95 126 29.9 126 29.84C126.07 29.14 126.63 28.57 127.34 28.5C127.39 28.5 127.44 28.5 127.49 28.5H142.49H142.5ZM168 28.5C172.14 28.5 175.5 31.86 175.5 36C175.5 38.84 173.92 41.31 171.59 42.59L170.32 43.28L175.34 53.33C175.71 54.07 175.41 54.97 174.67 55.34C173.93 55.71 173.03 55.41 172.66 54.67L167.07 43.5H160.5V54C160.5 54.83 159.83 55.5 159 55.5C158.17 55.5 157.5 54.83 157.5 54V30C157.5 29.95 157.5 29.9 157.5 29.84C157.58 29.09 158.22 28.5 158.99 28.5H167.99H168ZM240.75 28.5C241.58 28.5 242.25 29.17 242.25 30C242.25 30.83 241.58 31.5 240.75 31.5H233.25V54C233.25 54.83 232.58 55.5 231.75 55.5C230.92 55.5 230.25 54.83 230.25 54V31.5H222.75C221.92 31.5 221.25 30.83 221.25 30C221.25 29.17 221.92 28.5 222.75 28.5H240.75ZM256.5 28.5C257.33 28.5 258 29.17 258 30V54C258 54.83 257.33 55.5 256.5 55.5C255.67 55.5 255 54.83 255 54V30C255 29.17 255.67 28.5 256.5 28.5ZM291 28.5C291.83 28.5 292.5 29.17 292.5 30C292.5 30.83 291.83 31.5 291 31.5H277.5V40.5H288C288.83 40.5 289.5 41.17 289.5 42C289.5 42.83 288.83 43.5 288 43.5H277.5V52.5H291C291.83 52.5 292.5 53.17 292.5 54C292.5 54.83 291.83 55.5 291 55.5H276C275.17 55.5 274.5 54.83 274.5 54V30C274.5 29.95 274.5 29.9 274.5 29.84C274.57 29.14 275.13 28.57 275.84 28.5C275.89 28.5 275.94 28.5 275.99 28.5H290.99H291ZM318 28.5C322.14 28.5 325.5 31.86 325.5 36C325.5 38.84 323.92 41.31 321.59 42.59L320.32 43.28L325.35 53.33C325.72 54.07 325.42 54.97 324.68 55.34C323.94 55.71 323.04 55.41 322.67 54.67L317.09 43.5H310.52V54C310.52 54.83 309.85 55.5 309.02 55.5C308.19 55.5 307.52 54.83 307.52 54V30C307.52 29.95 307.52 29.9 307.52 29.84C307.6 29.09 308.24 28.5 309.01 28.5H318ZM200.25 31.11C194.24 31.11 189.36 35.99 189.36 42C189.36 48.01 194.24 52.89 200.25 52.89C206.26 52.89 211.14 48.02 211.14 42C211.14 35.98 206.26 31.11 200.25 31.11ZM160.5 40.5H167.96C167.96 40.5 168 40.5 168.02 40.5H168.05H168.3C170.64 40.34 172.5 38.39 172.5 36.01C172.5 33.63 170.49 31.51 168 31.51H160.5V40.5ZM310.5 40.5H317.96C317.96 40.5 318 40.5 318.02 40.5H318.05H318.3C320.64 40.34 322.5 38.39 322.5 36.01C322.5 33.63 320.48 31.51 318 31.51H310.5V40.5Z" fill="#161C24"></path></g><defs><clipPath id="clip0_2634_1663"><rect width="325.5" height="78" fill="white"></rect></clipPath></defs></svg>