<svg width="326" height="78" viewBox="0 0 326 78" fill="none" xmlns="http://www.w3.org/2000/svg">
<g clip-path="url(#clip0_2634_1662)">
<path d="M39.5 0C48.41 0 55.66 0.41 61.26 0.93C65.04 1.28 66.93 1.46 69.69 3C71.59 4.06 74.44 6.91 75.49 8.8C77.03 11.56 77.21 13.45 77.56 17.23C78.08 22.83 78.49 30.09 78.49 38.99C78.49 47.89 78.08 55.15 77.56 60.75C77.21 64.53 77.03 66.42 75.49 69.18C74.43 71.08 71.58 73.93 69.69 74.98C66.93 76.52 65.04 76.7 61.26 77.05C55.66 77.57 48.4 77.98 39.5 77.98C30.6 77.98 23.34 77.57 17.74 77.05C13.96 76.7 12.07 76.52 9.31001 74.98C7.41001 73.92 4.56001 71.07 3.51001 69.18C1.97001 66.42 1.79001 64.53 1.44001 60.75C0.92001 55.15 0.51001 47.89 0.51001 38.99C0.51001 30.09 0.92001 22.83 1.44001 17.23C1.79001 13.45 1.97001 11.56 3.51001 8.8C4.57001 6.9 7.42001 4.05 9.31001 3C12.07 1.46 13.96 1.28 17.74 0.93C23.34 0.41 30.6 0 39.5 0ZM15.5 12C13.84 12 12.5 13.34 12.5 15C12.5 16.66 13.84 18 15.5 18H36.5V27.3C29.65 28.69 24.5 34.74 24.5 42C24.5 49.26 29.65 55.31 36.5 56.7V66C36.5 67.66 37.84 69 39.5 69C41.16 69 42.5 67.66 42.5 66V56.7C49.35 55.31 54.5 49.26 54.5 42C54.5 34.74 49.35 28.69 42.5 27.3V18H63.5C65.16 18 66.5 16.66 66.5 15C66.5 13.34 65.16 12 63.5 12H15.5ZM39.5 33C44.47 33 48.5 37.03 48.5 42C48.5 46.97 44.47 51 39.5 51C34.53 51 30.5 46.97 30.5 42C30.5 37.03 34.53 33 39.5 33Z" fill="#FFB25B"/>
<path d="M200.75 28C208.48 28 214.75 34.27 214.75 42C214.75 49.73 208.48 56 200.75 56C193.02 56 186.75 49.73 186.75 42C186.75 34.27 193.02 28 200.75 28ZM111.54 28.5C111.54 28.5 111.59 28.5 111.62 28.5C111.64 28.5 111.66 28.5 111.69 28.5C111.72 28.5 111.74 28.5 111.77 28.51C111.79 28.51 111.82 28.51 111.84 28.52C111.86 28.52 111.89 28.53 111.91 28.54C111.93 28.54 111.96 28.55 111.98 28.56C112.01 28.56 112.03 28.58 112.05 28.59C112.07 28.59 112.09 28.61 112.11 28.61C112.13 28.62 112.16 28.63 112.18 28.64C112.2 28.65 112.23 28.66 112.25 28.68C112.27 28.68 112.28 28.7 112.3 28.71C112.33 28.73 112.35 28.75 112.38 28.76C112.38 28.76 112.4 28.77 112.4 28.78C112.4 28.78 112.41 28.79 112.42 28.8C112.44 28.82 112.47 28.84 112.49 28.86C112.51 28.87 112.52 28.89 112.54 28.9C112.56 28.92 112.58 28.94 112.6 28.96C112.61 28.98 112.63 28.99 112.65 29.01C112.67 29.03 112.68 29.05 112.7 29.07C112.71 29.09 112.73 29.11 112.74 29.12C112.76 29.14 112.77 29.17 112.79 29.19C112.79 29.21 112.81 29.22 112.82 29.24C112.83 29.27 112.85 29.29 112.86 29.32C112.86 29.34 112.88 29.36 112.89 29.38C112.9 29.4 112.91 29.43 112.92 29.45C112.92 29.47 112.93 29.49 112.94 29.51C112.94 29.54 112.96 29.57 112.96 29.59C112.96 29.61 112.97 29.63 112.97 29.65C112.97 29.68 112.98 29.71 112.99 29.74C112.99 29.76 112.99 29.77 112.99 29.79C112.99 29.82 112.99 29.85 112.99 29.88C112.99 29.9 112.99 29.92 112.99 29.94C112.99 29.95 112.99 29.97 112.99 29.98C112.99 29.99 112.99 30.01 112.99 30.02C112.99 30.05 112.99 30.07 112.99 30.1C112.99 30.12 112.99 30.14 112.99 30.16C112.99 30.19 112.99 30.22 112.98 30.24C112.98 30.26 112.98 30.29 112.97 30.31C112.97 30.33 112.96 30.35 112.95 30.38C112.95 30.41 112.93 30.44 112.92 30.46C112.92 30.48 112.91 30.49 112.9 30.51C112.89 30.54 112.88 30.57 112.86 30.6C112.86 30.61 112.85 30.63 112.84 30.64C112.82 30.67 112.8 30.71 112.78 30.74C112.78 30.74 112.78 30.76 112.77 30.76C112.75 30.79 112.73 30.82 112.71 30.85C112.71 30.85 112.7 30.87 112.69 30.88L96.49 52.48H111.49C112.32 52.48 112.99 53.15 112.99 53.98C112.99 54.81 112.32 55.48 111.49 55.48H93.49C93.49 55.48 93.46 55.48 93.45 55.48C93.42 55.48 93.4 55.48 93.37 55.48C93.35 55.48 93.33 55.48 93.31 55.48C93.28 55.48 93.25 55.48 93.23 55.47C93.21 55.47 93.18 55.47 93.16 55.46C93.14 55.46 93.11 55.45 93.09 55.44C93.07 55.44 93.05 55.43 93.03 55.42C93 55.42 92.97 55.4 92.94 55.39C92.93 55.39 92.91 55.38 92.9 55.37C92.87 55.36 92.85 55.34 92.82 55.33C92.8 55.32 92.78 55.31 92.76 55.3C92.74 55.29 92.72 55.28 92.71 55.27C92.69 55.25 92.66 55.24 92.64 55.22C92.64 55.22 92.62 55.21 92.61 55.2C92.6 55.2 92.59 55.18 92.58 55.17C92.56 55.16 92.55 55.14 92.53 55.13C92.51 55.11 92.49 55.09 92.46 55.07C92.45 55.06 92.43 55.05 92.42 55.03C92.4 55.01 92.38 54.98 92.35 54.96C92.34 54.95 92.33 54.93 92.32 54.92C92.3 54.9 92.28 54.87 92.27 54.85C92.26 54.83 92.25 54.82 92.24 54.8C92.22 54.78 92.21 54.75 92.2 54.73C92.19 54.71 92.18 54.69 92.17 54.67C92.16 54.65 92.15 54.63 92.14 54.6C92.14 54.58 92.12 54.56 92.12 54.55C92.11 54.52 92.1 54.49 92.09 54.46C92.09 54.44 92.08 54.42 92.07 54.4C92.07 54.38 92.06 54.35 92.05 54.33C92.05 54.31 92.05 54.28 92.04 54.26C92.04 54.23 92.04 54.21 92.03 54.18C92.03 54.16 92.03 54.15 92.03 54.13C92.03 54.09 92.03 54.06 92.03 54.02C92.03 54.02 92.03 54.01 92.03 54C92.03 53.99 92.03 53.99 92.03 53.98C92.03 53.94 92.03 53.9 92.03 53.87C92.03 53.86 92.03 53.84 92.03 53.83C92.03 53.8 92.03 53.77 92.04 53.74C92.04 53.72 92.04 53.69 92.05 53.67C92.05 53.65 92.06 53.62 92.07 53.6C92.07 53.58 92.08 53.56 92.09 53.54C92.09 53.51 92.11 53.48 92.12 53.46C92.12 53.44 92.13 53.43 92.14 53.41C92.15 53.39 92.16 53.36 92.17 53.34C92.18 53.32 92.19 53.29 92.21 53.27C92.21 53.25 92.23 53.24 92.24 53.22C92.26 53.2 92.27 53.17 92.29 53.15C92.29 53.15 92.3 53.13 92.31 53.12L108.51 31.52H93.51C92.68 31.52 92.01 30.85 92.01 30.02C92.01 29.19 92.68 28.52 93.51 28.52H111.51C111.51 28.52 111.54 28.52 111.55 28.52L111.54 28.5ZM143 28.5C143.83 28.5 144.5 29.17 144.5 30C144.5 30.83 143.83 31.5 143 31.5H129.5V40.5H140C140.83 40.5 141.5 41.17 141.5 42C141.5 42.83 140.83 43.5 140 43.5H129.5V52.5H143C143.83 52.5 144.5 53.17 144.5 54C144.5 54.83 143.83 55.5 143 55.5H128C127.17 55.5 126.5 54.83 126.5 54V30C126.5 29.95 126.5 29.9 126.5 29.84C126.57 29.14 127.13 28.57 127.84 28.5C127.89 28.5 127.94 28.5 127.99 28.5H142.99H143ZM168.5 28.5C172.64 28.5 176 31.86 176 36C176 38.84 174.42 41.31 172.09 42.59L170.82 43.28L175.84 53.33C176.21 54.07 175.91 54.97 175.17 55.34C174.43 55.71 173.53 55.41 173.16 54.67L167.57 43.5H161V54C161 54.83 160.33 55.5 159.5 55.5C158.67 55.5 158 54.83 158 54V30C158 29.95 158 29.9 158 29.84C158.08 29.09 158.72 28.5 159.49 28.5H168.49H168.5ZM241.25 28.5C242.08 28.5 242.75 29.17 242.75 30C242.75 30.83 242.08 31.5 241.25 31.5H233.75V54C233.75 54.83 233.08 55.5 232.25 55.5C231.42 55.5 230.75 54.83 230.75 54V31.5H223.25C222.42 31.5 221.75 30.83 221.75 30C221.75 29.17 222.42 28.5 223.25 28.5H241.25ZM257 28.5C257.83 28.5 258.5 29.17 258.5 30V54C258.5 54.83 257.83 55.5 257 55.5C256.17 55.5 255.5 54.83 255.5 54V30C255.5 29.17 256.17 28.5 257 28.5ZM291.5 28.5C292.33 28.5 293 29.17 293 30C293 30.83 292.33 31.5 291.5 31.5H278V40.5H288.5C289.33 40.5 290 41.17 290 42C290 42.83 289.33 43.5 288.5 43.5H278V52.5H291.5C292.33 52.5 293 53.17 293 54C293 54.83 292.33 55.5 291.5 55.5H276.5C275.67 55.5 275 54.83 275 54V30C275 29.95 275 29.9 275 29.84C275.07 29.14 275.63 28.57 276.34 28.5C276.39 28.5 276.44 28.5 276.49 28.5H291.49H291.5ZM318.5 28.5C322.64 28.5 326 31.86 326 36C326 38.84 324.42 41.31 322.09 42.59L320.82 43.28L325.85 53.33C326.22 54.07 325.92 54.97 325.18 55.34C324.44 55.71 323.54 55.41 323.17 54.67L317.59 43.5H311.02V54C311.02 54.83 310.35 55.5 309.52 55.5C308.69 55.5 308.02 54.83 308.02 54V30C308.02 29.95 308.02 29.9 308.02 29.84C308.1 29.09 308.74 28.5 309.51 28.5H318.5ZM200.75 31.11C194.74 31.11 189.86 35.99 189.86 42C189.86 48.01 194.74 52.89 200.75 52.89C206.76 52.89 211.64 48.02 211.64 42C211.64 35.98 206.76 31.11 200.75 31.11ZM161 40.5H168.46C168.46 40.5 168.5 40.5 168.52 40.5H168.55H168.8C171.14 40.34 173 38.39 173 36.01C173 33.63 170.99 31.51 168.5 31.51H161V40.5ZM311 40.5H318.46C318.46 40.5 318.5 40.5 318.52 40.5H318.55H318.8C321.14 40.34 323 38.39 323 36.01C323 33.63 320.98 31.51 318.5 31.51H311V40.5Z" fill="white"/>
</g>
<defs>
<clipPath id="clip0_2634_1662">
<rect width="325.5" height="78" fill="white" transform="translate(0.5)"/>
</clipPath>
</defs>
</svg>
